/* XPM */
static char *a844621ea68f46f4eb198ff1be50a75fGHBTPeaLDUGOgarS[] = {
/* columns rows colors chars-per-pixel */
"64 64 5 1 ",
"  c #14847D",
". c #189F97",
"X c #1AA69D",
"o c #1CBAB0",
"O c #21D4C9",
/* pixels */
" .............................................................. ",
".OOOOOOOOOOOOOOOOOOOOOOOOOOOOOOOOOOOOOOOOOOOOOOOOOOOOOOOOOOOOOO.",
".OOOOOOOOOOOOOOOOOOOOOOOOOOOOOOOOOOOOOOOOOOOOOOOOOOOOOOOOOOOOOO.",
".OOOOOOOOOOOOOOOOOOOOOOOOOOOOOOOOOOOOOOOOOOOOOOOOOOOOOOOOOOOOOO.",
".OOOOOOOOOOOOOOOOOOOOOOOOOOOOOOOOOOOOOOOOOOOOOOOOOOOOOOOOOOOOOO.",
".OOOOOOOOOOOOOOOOOOOOOOOOOOOOOOOOOOOOOOOOOOOOOOOOOOOOOOOOOOOOOO.",
".OOOOOOOOOOOOOOOOOOOOOOOOOOOOOOOOOOOOOOOOOOOOOOOOOOOOOOOOOOOOOO.",
".OOOOOOOOOOOOOOOOOOOOOOOOOOOOOOOOOOOOOOOOOOOOOOOOOOOOOOOOOOOOOO.",
".OOOOOOOOOOOOOOOOOOOOOOOOOOOOOOOOOOOOOOOOOOOOOOOOOOOOOOOOOOOOOO.",
".OOOOOOOOOOOOOOOOOOOOOOOOOOOOOOOOOOOOOOOOOOOOOOOOOOOOOOOOOOOOOO.",
".OOOOOOOOOOOOOOooOOOOOOOOOOOOOOOOOOOOOOOOOOOOOOooOOOOOOOOOOOOOO.",
".OOOOOOOOOOOOOOooOOOOOOOOOOOOOOOOOOOOOOOOOOOOOOooOOOOOOOOOOOOOO.",
".OOOOOOOOOOOOOOooOOOOOOOOOOOOOOOOOOOOOOOOOOOOOOooOOOOOOOOOOOOOO.",
".OOOOOOOOOOOOOOooOOOOOOOOOOOOOOOOOOOOOOOOOOOOOOooOOOOOOOOOOOOOO.",
".OOOOOOOOOOOOOOooOOOOOOOOOOOOOOOOOOOOOOOOOOOOOOooOOOOOOOOOOOOOO.",
".OOOOOOOOOoooooXXoooooOOOOOOOOOOOOOOOOOOOOoooooXXoooooOOOOOOOOO.",
".OOOOOOOOOoooooXXoooooOOOOOOOOOOOOOOOOOOOOoooooXXoooooOOOOOOOOO.",
".OOOOOOOOOOOOOOooOOOOOOOOOOOOOOOOOOOOOOOOOOOOOOooOOOOOOOOOOOOOO.",
".OOOOOOOOOOOOOOooOOOOOOOOOOOOOOOOOOOOOOOOOOOOOOooOOOOOOOOOOOOOO.",
".OOOOOOOOOOOOOOooOOOOOOOOOOOOOOOOOOOOOOOOOOOOOOooOOOOOOOOOOOOOO.",
".OOOOOOOOOOOOOOooOOOOOOOOOOOOOOOOOOOOOOOOOOOOOOooOOOOOOOOOOOOOO.",
".OOOOOOOOOOOOOOooOOOOOOOOOOOOOOOOOOOOOOOOOOOOOOooOOOOOOOOOOOOOO.",
".OOOOOOOOOOOOOOOOOOOOOOOOOOOOOOOOOOOOOOOOOOOOOOOOOOOOOOOOOOOOOO.",
".OOOOOOOOOOOOOOOOOOOOOOOOOOOOOOOOOOOOOOOOOOOOOOOOOOOOOOOOOOOOOO.",
".OOOOOOOOOOOOOOOOOOOOOOOOOOOOOOOOOOOOOOOOOOOOOOOOOOOOOOOOOOOOOO.",
".OOOOOOOOOOOOOOOOOOOOOOOOOOOOOOOOOOOOOOOOOOOOOOOOOOOOOOOOOOOOOO.",
".OOOOOOOOOOOOOOOOOOOOOOOOOOOOOOOOOOOOOOOOOOOOOOOOOOOOOOOOOOOOOO.",
".OOOOOOOOOOOOOOOOOOOOOOOOOOOOOOOOOOOOOOOOOOOOOOOOOOOOOOOOOOOOOO.",
".OOOOOOOOOOOOOOOOOOOOOOOOOOOOOOOOOOOOOOOOOOOOOOOOOOOOOOOOOOOOOO.",
".OOOOOOOOOOOOOOOOOOOOOOOOOOOOOOOOOOOOOOOOOOOOOOOOOOOOOOOOOOOOOO.",
".OOOOOOOOOOOOOOOOOOOOOOOOOOOOOOOOOOOOOOOOOOOOOOOOOOOOOOOOOOOOOO.",
".OOOOOOOOOOOOOOOOOOOOOOOOOOOOOOOOOOOOOOOOOOOOOOOOOOOOOOOOOOOOOO.",
".OOOOOOOOOOOOOOOOOOOOOOOOOOOOOOOOOOOOOOOOOOOOOOOOOOOOOOOOOOOOOO.",
".OOOOOOOOOOOOOOOOOOOOOOOOOOOOOOOOOOOOOOOOOOOOOOOOOOOOOOOOOOOOOO.",
".OOOOOOOOOOOOOOOOOOOOOOOOOOOOOOOOOOOOOOOOOOOOOOOOOOOOOOOOOOOOOO.",
".OOOOOOOOOOOOOOOOOOOOOOOOOOOOOOOOOOOOOOOOOOOOOOOOOOOOOOOOOOOOOO.",
".OOOOOOOOOOOOOOOOOOOOOOOOOOOOOOOOOOOOOOOOOOOOOOOOOOOOOOOOOOOOOO.",
".OOOOOOOOOOOOOOOOOOOOOOOOOOOOOOOOOOOOOOOOOOOOOOOOOOOOOOOOOOOOOO.",
".OOOOOOOOOOOOOOOOOOOOOOOOOOOOOOOOOOOOOOOOOOOOOOOOOOOOOOOOOOOOOO.",
".OOOOOOOOOOOOOOOOOOOOOOOOOOOOOOOOOOOOOOOOOOOOOOOOOOOOOOOOOOOOOO.",
".OOOOOOOOOOOOOOOOOOOOOOOOOOOOOOOOOOOOOOOOOOOOOOOOOOOOOOOOOOOOOO.",
".OOOOOOOOOOOOOOOOOOOOOOOOOOOOOOOOOOOOOOOOOOOOOOOOOOOOOOOOOOOOOO.",
".OOOOOOOOOOOOOOooOOOOOOOOOOOOOOOOOOOOOOOOOOOOOOooOOOOOOOOOOOOOO.",
".OOOOOOOOOOOOOOooOOOOOOOOOOOOOOOOOOOOOOOOOOOOOOooOOOOOOOOOOOOOO.",
".OOOOOOOOOOOOOOooOOOOOOOOOOOOOOOOOOOOOOOOOOOOOOooOOOOOOOOOOOOOO.",
".OOOOOOOOOOOOOOooOOOOOOOOOOOOOOOOOOOOOOOOOOOOOOooOOOOOOOOOOOOOO.",
".OOOOOOOOOOOOOOooOOOOOOOOOOOOOOOOOOOOOOOOOOOOOOooOOOOOOOOOOOOOO.",
".OOOOOOOOOoooooXXoooooOOOOOOOOOOOOOOOOOOOOoooooXXoooooOOOOOOOOO.",
".OOOOOOOOOoooooXXoooooOOOOOOOOOOOOOOOOOOOOoooooXXoooooOOOOOOOOO.",
".OOOOOOOOOOOOOOooOOOOOOOOOOOOOOOOOOOOOOOOOOOOOOooOOOOOOOOOOOOOO.",
".OOOOOOOOOOOOOOooOOOOOOOOOOOOOOOOOOOOOOOOOOOOOOooOOOOOOOOOOOOOO.",
".OOOOOOOOOOOOOOooOOOOOOOOOOOOOOOOOOOOOOOOOOOOOOooOOOOOOOOOOOOOO.",
".OOOOOOOOOOOOOOooOOOOOOOOOOOOOOOOOOOOOOOOOOOOOOooOOOOOOOOOOOOOO.",
".OOOOOOOOOOOOOOooOOOOOOOOOOOOOOOOOOOOOOOOOOOOOOooOOOOOOOOOOOOOO.",
".OOOOOOOOOOOOOOOOOOOOOOOOOOOOOOOOOOOOOOOOOOOOOOOOOOOOOOOOOOOOOO.",
".OOOOOOOOOOOOOOOOOOOOOOOOOOOOOOOOOOOOOOOOOOOOOOOOOOOOOOOOOOOOOO.",
".OOOOOOOOOOOOOOOOOOOOOOOOOOOOOOOOOOOOOOOOOOOOOOOOOOOOOOOOOOOOOO.",
".OOOOOOOOOOOOOOOOOOOOOOOOOOOOOOOOOOOOOOOOOOOOOOOOOOOOOOOOOOOOOO.",
".OOOOOOOOOOOOOOOOOOOOOOOOOOOOOOOOOOOOOOOOOOOOOOOOOOOOOOOOOOOOOO.",
".OOOOOOOOOOOOOOOOOOOOOOOOOOOOOOOOOOOOOOOOOOOOOOOOOOOOOOOOOOOOOO.",
".OOOOOOOOOOOOOOOOOOOOOOOOOOOOOOOOOOOOOOOOOOOOOOOOOOOOOOOOOOOOOO.",
".OOOOOOOOOOOOOOOOOOOOOOOOOOOOOOOOOOOOOOOOOOOOOOOOOOOOOOOOOOOOOO.",
".OOOOOOOOOOOOOOOOOOOOOOOOOOOOOOOOOOOOOOOOOOOOOOOOOOOOOOOOOOOOOO.",
" .............................................................. "
};
