/* XPM */
static char *_f2fc8020e6f4552fbff8ba00c6417adWh76rSCQeM3I497T[] = {
/* columns rows colors chars-per-pixel */
"32 32 39 1 ",
"  c #35000E",
". c #2F0316",
"X c #29071E",
"o c #170625",
"O c #2C283B",
"+ c #28283C",
"@ c #4F040E",
"# c #490716",
"$ c #540919",
"% c #69080E",
"& c #6A3831",
"* c #2F2D47",
"= c #34344F",
"- c #3D445B",
"; c #374867",
": c #724940",
"> c #444D66",
", c #910C0E",
"< c #B33C12",
"1 c #801D20",
"2 c #C40E0E",
"3 c #EC2E1F",
"4 c #BE6B3D",
"5 c #D2672F",
"6 c #A86050",
"7 c #DA6346",
"8 c #C57B4C",
"9 c #D16752",
"0 c #DD6C52",
"q c #CD8C5B",
"w c #D39E6D",
"e c #E98267",
"r c #F5967B",
"t c #D6A678",
"y c #D9B07F",
"u c #DCB88A",
"i c #DFC397",
"p c #E6D7AF",
"a c #F2EAC3",
/* pixels */
">>>>>>>>>>>>>>>>>>>>>>>>>>>>>>>>",
">>>>>>>>>>>>>>>>>>>>>>>>>>>>>>>>",
">>>>>>>>>>>>>>>>>>>>>>>>>>>>>>>>",
">>>>>>>;>>>>>>>>>>>>>>>>>>;>>>>>",
">>>>>;>;>>>>>>>>>>>>>>>>;>;>;>>>",
">>>>>;>;>;>>>>>>>>>>>>>>;>;>;>>>",
">>>>>>>>>>>>>>>>>>>>>>>>>>>>>>>>",
">>>>>>>>>>>>>>>oo>>>>>>>>>>>>>>>",
">>>>>>>>>>>>>>o5<+>>>>>>>>>>>>>>",
">>>>>>>>>>>>>>>#X>>>>>>>>>>>>>>>",
">>>>>>>>>>>>>#X#X>>>>>>>>>>>>>>>",
">>>>>>>>>>>>X>X  O>>>>>>>>>>>>>>",
">>>>>>>>>>>>XO 1%.>>>>>>>>>>>>>>",
">>>>>>>>>>>>>.%6  X>>>>>>>>>>>>>",
">>>>>>>>>>>>X@%1   O>>>>>>>>>>>>",
">>>>>>>>>>>+4wyiyyq&>>>>>>>>>>>>",
">>>>>>>>>>>+quiapiy:>>>>>>>>>>>>",
">>>>>>>>>>>+,7ir30y$>>>>>>>>>>>>",
">>>>>>>>>>>+q9pepu2:>>>>>>>>>>>>",
">>>>>>>>>>>+,7ir30y$>>>>>>>>>>>>",
">>>>>>>>>>>+4tippuq&>>>>>>>>>>>>",
">>>>>>>>>>>>o4qqq84+>>>>>>>>>>>>",
">>>>>>>>>>>-*oooooo=>>>>>>>>>>>>",
">>>>>>>>>>>>>>>>>>>>>>>>>>>>>>>>",
">>>>>>>;>>>>>>>>>>>>>>>>>>>>>>>>",
">>>>>;>;>;>>>>>>>>>>>>>>>>;>>>>>",
">>>>>;>;>;>>>>>>>>>>>>>>;>;>;>>>",
">>>>>>>>>>>>>>>>>>>>>>>>>>>>>>>>",
">>>>>>>>>>>>>>>>>>>>>>>>>>>>>>>>",
">>>>>>>>>>>>>>>>>>>>>>>>>>>>>>>>",
">>>>>>>>>>>>>>>>>>>>>>>>>>>>>>>>",
">>>>>>>>>>>>>>>>>>>>>>>>>>>>>>>>"
};
