/* XPM */
static char *tiles_45_Zeichenfla__che_11711992974[] = {
/* columns rows colors chars-per-pixel */
"45 45 25 1 ",
"  c #35000E",
". c #29071E",
"X c #170625",
"o c #221835",
"O c #69080E",
"+ c #2F2D47",
"@ c #34354F",
"# c #393B56",
"$ c #3C405A",
"% c #374867",
"& c #444D66",
"* c #910C0E",
"= c #B33C12",
"- c #973232",
"; c #C40E0E",
": c #DC170E",
"> c #EC2E1F",
", c #BE6B3D",
"< c #CD8C5B",
"1 c #F1934C",
"2 c #D9B07F",
"3 c #E7B892",
"4 c #DFC196",
"5 c #E6D7AF",
"6 c #FFFED7",
/* pixels */
"&&&&&&&&&&&&&&&&&&&&&&&&&&&&&&&&&&&&&&&&&&&&&",
"&&&&&&&&&&&&&&&&&&&&&&&&&&&&&&&&&&&&&&&&&&&&&",
"&&&&&&&&&&&&&&&&&&&&&&&&&&&&&&&&&&&&&&&&&&&&&",
"&&&&&&&&&&&&&&&&&&&&&&&&&&&&&&&&&&&&&&&&&&&&&",
"&&&&&&&&&&&&&&&&&&&&&&&&&&&&&&&&&&&&&&&&&&&&&",
"&&&&&&&&&&&&&&&&&&&&&&&&&&&&&&&&&&&&&&&&&&&&&",
"&&&&&&&&&&&%&&&&&&&&&&&&&&&&&&&&&&&&&%%&&&&&&",
"&&&&&&&&%%&%&&&&&&&&&&&&&&&&&&&&&&%%&%%&%&&&&",
"&&&&&&&&%%&%&&%&&&&&&&&&&&&&&&&&&&%%&%%&%&&&&",
"&&&&&&&&%%&%&&%&&&&&&&&&&&&&&&&&&&%%&%%&%&&&&",
"&&&&&&&&&&&&&&&&&&&&&&XXX&&&&&&&&&&&&&&&&&&&&",
"&&&&&&&&&&&&&&&&&&&&&X=1=X&&&&&&&&&&&&&&&&&&&",
"&&&&&&&&&&&&&&&&&&&&&X=1=X&&&&&&&&&&&&&&&&&&&",
"&&&&&&&&&&&&&&&&&&&&&&.O.&&&&&&&&&&&&&&&&&&&&",
"&&&&&&&&&&&&&&&&&&&.O..O.&&&&&&&&&&&&&&&&&&&&",
"&&&&&&&&&&&&&&&&&&&.O..O.&&&&&&&&&&&&&&&&&&&&",
"&&&&&&&&&&&&&&&&&&.&&.   .&&&&&&&&&&&&&&&&&&&",
"&&&&&&&&&&&&&&&&&&.&. O-O .&&&&&&&&&&&&&&&&&&",
"&&&&&&&&&&&&&&&&&&.&. O-O .&&&&&&&&&&&&&&&&&&",
"&&&&&&&&&&&&&&&&&&&. O3O   .&&&&&&&&&&&&&&&&&",
"&&&&&&&&&&&&&&&&&&. OO-O    .&&&&&&&&&&&&&&&&",
"&&&&&&&&&&&&&&&&&X,<2225222<,X&&&&&&&&&&&&&&&",
"&&&&&&&&&&&&&&&&&X,<2225222<,X&&&&&&&&&&&&&&&",
"&&&&&&&&&&&&&&&&&X<244565442<X&&&&&&&&&&&&&&&",
"&&&&&&&&&&&&&&&&&X*2:4>6>4:2*X&&&&&&&&&&&&&&&",
"&&&&&&&&&&&&&&&&&X*2:4>6>4:2*X&&&&&&&&&&&&&&&",
"&&&&&&&&&&&&&&&&&X<;455>524;<X&&&&&&&&&&&&&&&",
"&&&&&&&&&&&&&&&&&X*2:4>6>4:2*X&&&&&&&&&&&&&&&",
"&&&&&&&&&&&&&&&&&X,<4455542<,X&&&&&&&&&&&&&&&",
"&&&&&&&&&&&&&&&&&X,<4455542<,X&&&&&&&&&&&&&&&",
"&&&&&&&&&&&&&&&&&&X,,<<<<<,,X&&&&&&&&&&&&&&&&",
"&&&&&&&&&&&&&&&&&#+XXXXXXXXX+#&&&&&&&&&&&&&&&",
"&&&&&&&&&&&&&&&&&$@ooooooooo@$&&&&&&&&&&&&&&&",
"&&&&&&&&&&&&&&&&&&&&&&&&&&&&&&&&&&&&&&&&&&&&&",
"&&&&&&&&&&&%&&&&&&&&&&&&&&&&&&&&&&&&&&&&&&&&&",
"&&&&&&&&&&&%&&&&&&&&&&&&&&&&&&&&&&&&&&&&&&&&&",
"&&&&&&&&%%&%&&%&&&&&&&&&&&&&&&&&&&&&&%%&&&&&&",
"&&&&&&&&%%&%&&%&&&&&&&&&&&&&&&&&&&%%&%%&%&&&&",
"&&&&&&&&%%&%&&%&&&&&&&&&&&&&&&&&&&%%&%%&%&&&&",
"&&&&&&&&&&&&&&&&&&&&&&&&&&&&&&&&&&&&&&&&&&&&&",
"&&&&&&&&&&&&&&&&&&&&&&&&&&&&&&&&&&&&&&&&&&&&&",
"&&&&&&&&&&&&&&&&&&&&&&&&&&&&&&&&&&&&&&&&&&&&&",
"&&&&&&&&&&&&&&&&&&&&&&&&&&&&&&&&&&&&&&&&&&&&&",
"&&&&&&&&&&&&&&&&&&&&&&&&&&&&&&&&&&&&&&&&&&&&&",
"&&&&&&&&&&&&&&&&&&&&&&&&&&&&&&&&&&&&&&&&&&&&&"
};
