/* XPM */
static char *_ea30cf1df0841e5e66cb691c19b3c1dl1NByUcU3f2hA93G[] = {
/* columns rows colors chars-per-pixel */
"32 32 7 1 ",
"  c #181425",
". c #202135",
"X c #3E2731",
"o c #733E39",
"O c #374867",
"+ c #444D66",
"@ c #B86F50",
/* pixels */
"++++++++++++++++++++++++++++++++",
"++++++++++++++++++++++++++++++++",
"++++++++++++++++++++++++++++++++",
"++++++++++++++++++++++++++++++++",
"+++++++O+++++++   ++++++++O+++++",
"+++++O+O++++   ooo   +++O+O+O+++",
"+++++O+O+O++   ooo   +++O+O+O+++",
"+++++++++   XooXoo@@@   ++++++++",
"++++++   ooooooXooooo@@@   +++++",
"++++++   ooooooXooooo@@@   +++++",
"++++  XXXoooXooooo@@@ooo@@@ ++++",
"++++  XoooXXoooXooooo@@@@@@ ++++",
"++++  XoooXXoooXooooo@@@@@@ ++++",
"++++  oXXooooXXXoo@@@ooo@@@ ++++",
"++++  XooXXXXXX   ooo@@@ooo ++++",
"++++  XooXXXXXX   ooo@@@ooo ++++",
"++++  XXXXXX   ooo   ooo@@@ ++++",
"++++  XXX   ooo@@@ooo   ooo ++++",
"++++  XXX   ooo@@@ooo   ooo ++++",
"++++++   o  @@@@@@@@@ XX   +++++",
"++++++ XXo  @   @@ @@ XXo  +++++",
"++++++ XXo  @   @@ @@ XXo  +++++",
"++++++ XXo  @   @@ @@ XXo  +++++",
"++++++ XXo  @   @@@@@ XXo  +++++",
"++++++ XXo  @   @@@@@ XXo  +++++",
"++++++ XXo            XXo  +++++",
"+++++O+   ++++++++++++   +O+++++",
"+++++O+...++++++++++++...+O+O+++",
"++++++++++++++++++++++++++++++++",
"++++++++++++++++++++++++++++++++",
"++++++++++++++++++++++++++++++++",
"++++++++++++++++++++++++++++++++"
};
