/* XPM */
static char *_8598bcd840a41b1be049c9951849cccyIRx46Fkvids44A1[] = {
/* columns rows colors chars-per-pixel */
"45 45 7 1 ",
"  c #181425",
". c #202135",
"X c #3E2731",
"o c #733E39",
"O c #374867",
"+ c #444D66",
"@ c #B86F50",
/* pixels */
"+++++++++++++++++++++++++++++++++++++++++++++",
"+++++++++++++++++++++++++++++++++++++++++++++",
"+++++++++++++++++++++++++++++++++++++++++++++",
"+++++++++++++++++++++++++++++++++++++++++++++",
"+++++++++++++++++++++++++++++++++++++++++++++",
"+++++++++++OO+++++++++    ++++++++++++O++++++",
"++++++++OO+OO+++++++++    +++++++++O++O+OO+++",
"++++++++OO+OO+O+++    oooo    +++++O++O+OO+++",
"++++++++OO+OO+O+++    oooo    +++++O++O+OO+++",
"+++++++++++++     XXooXXoo@@@@    +++++++++++",
"+++++++++++++     XXooXXoo@@@@    +++++++++++",
"+++++++++    oooooooooXXoooooo@@@@     ++++++",
"+++++++++    oooooooooXXoooooo@@@@     ++++++",
"+++++++  XXXXoooooXXoooooo@@@@oooo@@@@@ .++++",
"+++++++  XXXXoooooXXoooooo@@@@oooo@@@@@ .++++",
"+++++++  XXooooXXXooooXXoooooo@@@@@@@@@ .++++",
"+++++++  XXooooXXXooooXXoooooo@@@@@@@@@ .++++",
"+++++++  XXooooXXXooooXXoooooo@@@@@@@@@ .++++",
"+++++++  ooXXoooooooXXXXoo@@@@oooo@@@@@ .++++",
"+++++++  ooXXoooooooXXXXoo@@@@oooo@@@@@ .++++",
"+++++++  XXooXXXXXXXXX    oooo@@@@ooooo .++++",
"+++++++  XXooXXXXXXXXX    oooo@@@@ooooo .++++",
"+++++++  XXXXXXXXX    oooo    oooo@@@@@ .++++",
"+++++++  XXXXXXXXX    oooo    oooo@@@@@ .++++",
"+++++++  XXXX     oooo@@@@oooo    ooooo .++++",
"+++++++  XXXX     oooo@@@@oooo    ooooo .++++",
"+++++++++    oo   @@@@@@@@@@@@  XX     ++++++",
"+++++++++    oo   @@@@@@@@@@@@  XX     ++++++",
"+++++++++  XXoo   @@    @@  @@  XXoo   ++++++",
"+++++++++  XXoo   @@@@@ @@  @@  XXoo   ++++++",
"+++++++++  XXoo   @@@@@ @@  @@  XXoo   ++++++",
"+++++++++  XXoo   @@@@@ @@  @@  XXoo   ++++++",
"+++++++++  XXoo   @@@@@ @@@@@@  XXoo   ++++++",
"+++++++++  XXoo   @@@@@ @@@@@@  XXoo   ++++++",
"+++++++++  XXoo     @@@         XXoo   ++++++",
"+++++++++  XXoo                 XXoo   ++++++",
"++++++++OO+    +++++++++++++++++    ++O++++++",
"++++++++OO+    +++++++++++++++++    ++O+OO+++",
"++++++++OO+....+++++++++++++++++....++O+OO+++",
"+++++++++++++++++++++++++++++++++++++++++++++",
"+++++++++++++++++++++++++++++++++++++++++++++",
"+++++++++++++++++++++++++++++++++++++++++++++",
"+++++++++++++++++++++++++++++++++++++++++++++",
"+++++++++++++++++++++++++++++++++++++++++++++",
"+++++++++++++++++++++++++++++++++++++++++++++"
};
