/* XPM */
static char *tiles_45_021711992975[] = {
/* columns rows colors chars-per-pixel */
"45 45 8 1 ",
"  c #141B1B",
". c #374867",
"X c #444D66",
"o c #56864C",
"O c #A8A129",
"+ c #C8966B",
"@ c #FFE18D",
"# c #FCE2CA",
/* pixels */
"XXXXXXXXXXXXXXXXXXXXXXXXXXXXXXXXXXXXXXXXXXXXX",
"XXXXXXXXXXXXXXXXXXXXXXXXXXXXXXXXXXXXXXXXXXXXX",
"XXXXXXXXXXXXXXXXXXXXXXXXXXXXXXXXXXXXXXXXXXXXX",
"XXXXXXXXXXXXXXXXXXXXXXXXXXXXXXXXXXXXXXXXXXXXX",
"XXXXXXXXXXXXXXXXXXXXXXXXXXXXXXXXXXXXXXXXXXXXX",
"XXXXXXXXXXX.XXXXXXXXXXXXXXXXXXXXXXXXX.XXXXXXX",
"XXXXXXXXXXX.XXXXXXXXXXXXXXXXXXXXXXXXX.XXXXXXX",
"XXXXXXXX..X.XXXXXXXXXXXXXXXXXXXXXX..X.XX.XXXX",
"XXXXXXXX..X.       XXXXXXXX      X..X.XX.XXXX",
"XXXXXXXX..X.       XXXXXXXX      X..X.XX.XXXX",
"XXXXXXXXXX  OOOOOOO  XXXX  OOOOOO  XXXXXXXXXX",
"XXXXXXXXXX  OOOOOOO  XXXX  OOOOOO  XXXXXXXXXX",
"XXXXXXXX  OO@@@@OOOOO    OOOOOOOOOO  XXXXXXXX",
"XXXXXXXX  OO@@@@OOOOO    OOOOOOOOOO  XXXXXXXX",
"XXXXXX  OOOO@@@@OOOOOOOOOOOOOOOOOOOOO  XXXXXX",
"XXXXXX  OOOO@@@@OOOOOOOOOOOOOOOOOOOOO  XXXXXX",
"XXXXXX  OOOOOOOOOOOOOOOOOOOOOOOOOOOOO  XXXXXX",
"XXXXXX  OOOOOOOOOOOOOOOOOOOOOOOOOOOOO  XXXXXX",
"XXXXXX  OOOOOOOOOOOOOOOOOOOOOOOOOOOOO  XXXXXX",
"XXXXXX  OOOOOOOOOOO########OOOOOOOOOO  XXXXXX",
"XXXXXX  OOOOOOOOOOO########OOOOOOOOOO  XXXXXX",
"XXXXXX  ooOOOOOO#####    ####OOOOOOoo  XXXXXX",
"XXXXXX  ooOOOOOO#####    ####OOOOOOoo  XXXXXX",
"XXXXXXXX  ooOOOO#####    ####OOOOoo  XXXXXXXX",
"XXXXXXXX  ooOOOO#####    ####OOOOoo  XXXXXXXX",
"XXXXXXXXXX  ooooooo########oooooo  XXXXXXXXXX",
"XXXXXXXXXX  ooooooo########oooooo  XXXXXXXXXX",
"XXXXXXXX  oo  ooOOOooooooooOOoo  XXXXXXXXXXXX",
"XXXXXXXX  oo  ooOOOooooooooOOoo  XXXXXXXXXXXX",
"XXXXXXXX  OOoo  oooOOOOOOOOoo  ++  XXXXXXXXXX",
"XXXXXXXX  OOoo  oooOOOOOOOOoo  ++  XXXXXXXXXX",
"XXXXXXXXXX    OO+++++####++oooooo  XXXXXXXXXX",
"XXXXXXXXXX    OO+++++####++oooooo  XXXXXXXXXX",
"XXXXXXXXXXXX  ooOOOOO    ooOOOOoo  XXXXXXXXXX",
"XXXXXXXXXXX.  ooOOOOO    ooOOOOoo  XXXXXXXXXX",
"XXXXXXXX..X.XX  ooooooooo  OOOO  XXXX.XXXXXXX",
"XXXXXXXX..X.XX  ooooooooo  OOOO  XXXX.XXXXXXX",
"XXXXXXXX..X.XX.XXXXXXXXXXXXXXXXXXX..X.XX.XXXX",
"XXXXXXXXXXXXXXXXXXXXXXXXXXXXXXXXXXXXXXXXXXXXX",
"XXXXXXXXXXXXXXXXXXXXXXXXXXXXXXXXXXXXXXXXXXXXX",
"XXXXXXXXXXXXXXXXXXXXXXXXXXXXXXXXXXXXXXXXXXXXX",
"XXXXXXXXXXXXXXXXXXXXXXXXXXXXXXXXXXXXXXXXXXXXX",
"XXXXXXXXXXXXXXXXXXXXXXXXXXXXXXXXXXXXXXXXXXXXX",
"XXXXXXXXXXXXXXXXXXXXXXXXXXXXXXXXXXXXXXXXXXXXX",
"XXXXXXXXXXXXXXXXXXXXXXXXXXXXXXXXXXXXXXXXXXXXX"
};
