/* XPM */
static char *_52a83da5a934ea1a9c7f4454ada3cc9JvCl98gjgHA5mOwQ[] = {
/* columns rows colors chars-per-pixel */
"45 45 13 1 ",
"  c #141B1B",
". c #181425",
"X c #232235",
"o c #3E2731",
"O c #733E39",
"+ c #374867",
"@ c #444D66",
"# c #B86F50",
"$ c #56864C",
"% c #A8A129",
"& c #C8966B",
"* c #FFE18D",
"= c #FCE2CA",
/* pixels */
"@@@@@@@@@@@@@@@@@@@@@@@@@@@@@@@@@@@@@@@@@@@@@",
"@@@@@@@@@@@@@@@@@@@@@@@@@@@@@@@@@@@@@@@@@@@@@",
"@@@@@@@@@@@@@@@@@@@@@@@@@@@@@@@@@@@@@@@@@@@@@",
"@@@@@@@@@@@@@@@@@@@@@@@@@@@@@@@@@@@@@@@@@@@@@",
"@@@@@@@@@@@@@@@@@@@@@@@@@@@@@@@@@@@@@@@@@@@@@",
"@@@@@@@@@@@+@@@@@@@@@@@@@@@@@@@@@@@@@+@@@@@@@",
"@@@@@@@@@@@+@@@@@@@@@....@@@@@@@@@@@@+@@@@@@@",
"@@@@@@@@++@+@@@@@@@@@....@@@@@@@@@++@+@@+@@@@",
"@@@@@@@@++@+@@+@@....OOOO....@@@@@++@+@@+@@@@",
"@@@@@@@@++@+       ..OOOO..      @++@+@@+@@@@",
"@@@@@@@@@@@@       OOooOO##      @@@@@@@@@@@@",
"@@@@@@@@@@  %%%%%%%  ooOO  %%%%%%  @@@@@@@@@@",
"@@@@@@@@..  %%%%%%%  ooOO  %%%%%%  ...@@@@@@@",
"@@@@@@@@  %%****%%%%%    %%%%%%%%%%  .@@@@@@@",
"@@@@@@..  %%****%%%%%    %%%%%%%%%%  #.X@@@@@",
"@@@@@@  %%%%****%%%%%%%%%%%%%%%%%%%%%  X@@@@@",
"@@@@@@  %%%%****%%%%%%%%%%%%%%%%%%%%%  X@@@@@",
"@@@@@@  %%%%%%%%%%%%%%%%%%%%%%%%%%%%%  X@@@@@",
"@@@@@@  %%%%%%%%%%%%%%%%%%%%%%%%%%%%%  X@@@@@",
"@@@@@@  %%%%%%%%%%%%%%%%%%%%%%%%%%%%%  X@@@@@",
"@@@@@@  %%%%%%%%%%%========%%%%%%%%%%  X@@@@@",
"@@@@@@  %%%%%%%%%%%========%%%%%%%%%%  X@@@@@",
"@@@@@@  $$%%%%%%=====    ====%%%%%%$$  X@@@@@",
"@@@@@@  $$%%%%%%=====    ====%%%%%%$$  X@@@@@",
"@@@@@@..  $$%%%%=====    ====%%%%$$  #.X@@@@@",
"@@@@@@..  $$%%%%=====    ====%%%%$$  O.X@@@@@",
"@@@@@@..oo  $$$$$$$========$$$$$$  OOO.X@@@@@",
"@@@@@@@@..  $$$$$$$========$$$$$$  ...@@@@@@@",
"@@@@@@@@  $$  $$%%%$$$$$$$$%%$$  .....@@@@@@@",
"@@@@@@@@  $$  $$%%%$$$$$$$$%%$$  OO...@@@@@@@",
"@@@@@@@@  %%$$  $$$%%%%%%%%$$  &&  ...@@@@@@@",
"@@@@@@@@  %%$$  $$$%%%%%%%%$$  &&  ...@@@@@@@",
"@@@@@@@@..    %%&&&&&====&&$$$$$$  ...@@@@@@@",
"@@@@@@@@..    %%&&&&&====&&$$$$$$  ...@@@@@@@",
"@@@@@@@@..oo  $$%%%%%    $$%%%%$$  ...@@@@@@@",
"@@@@@@@@..oo  $$%%%%%    $$%%%%$$  ...@@@@@@@",
"@@@@@@@@..ooOO  $$$$$$$$$  %%%%  OO...@@@@@@@",
"@@@@@@@@++....  $$$$$$$$$  %%%%  ..+@+@@+@@@@",
"@@@@@@@@@@....@@@@@@@@@@@@@@@@@....@@@@@@@@@@",
"@@@@@@@@@@XXXX@@@@@@@@@@@@@@@@@XXXX@@@@@@@@@@",
"@@@@@@@@@@@@@@@@@@@@@@@@@@@@@@@@@@@@@@@@@@@@@",
"@@@@@@@@@@@@@@@@@@@@@@@@@@@@@@@@@@@@@@@@@@@@@",
"@@@@@@@@@@@@@@@@@@@@@@@@@@@@@@@@@@@@@@@@@@@@@",
"@@@@@@@@@@@@@@@@@@@@@@@@@@@@@@@@@@@@@@@@@@@@@",
"@@@@@@@@@@@@@@@@@@@@@@@@@@@@@@@@@@@@@@@@@@@@@"
};
