/* XPM */
static char *_19ced99376941fda44be4e4708b0ef30xqmkUCt1cLQiYH2[] = {
/* columns rows colors chars-per-pixel */
"32 32 8 1 ",
"  c #141B1B",
". c #374867",
"X c #444D66",
"o c #56864C",
"O c #A8A129",
"+ c #C8966B",
"@ c #FFE18D",
"# c #FCE2CA",
/* pixels */
"XXXXXXXXXXXXXXXXXXXXXXXXXXXXXXXX",
"XXXXXXXXXXXXXXXXXXXXXXXXXXXXXXXX",
"XXXXXXXXXXXXXXXXXXXXXXXXXXXXXXXX",
"XXXXXXXXXXXXXXXXXXXXXXXXXXXXXXXX",
"XXXXXXX.XXXXXXXXXXXXXXXXXX.XXXXX",
"XXXXX.X.XXXXXXXXXXXXXXXX.X.X.XXX",
"XXXXX.X.X    XXXXXX     .X.X.XXX",
"XXXXXXX  OOOO  XXX OOOOO XXXXXXX",
"XXXXXXX  OOOO  XXX OOOOO XXXXXXX",
"XXXXXX OO@@@OOO   OOOOOOO  XXXXX",
"XXXX  OOO@@@OOOOOOOOOOOOOOO XXXX",
"XXXX  OOO@@@OOOOOOOOOOOOOOO XXXX",
"XXXX  OOOOOOOOOOOOOOOOOOOOO XXXX",
"XXXX  OOOOOOO######OOOOOOOO XXXX",
"XXXX  OOOOOOO######OOOOOOOO XXXX",
"XXXX  oOOOOO###   ###OOOOoo XXXX",
"XXXXXX ooOOO###   ###OOOo  XXXXX",
"XXXXXX ooOOO###   ###OOOo  XXXXX",
"XXXXXXX  oooo######ooooo XXXXXXX",
"XXXXXX oo ooOooooooOOo  XXXXXXXX",
"XXXXXX oo ooOooooooOOo  XXXXXXXX",
"XXXXXX OOo  oOOOOOOoo ++ XXXXXXX",
"XXXXXXX   OO+++###+ooooo XXXXXXX",
"XXXXXXX   OO+++###+ooooo XXXXXXX",
"XXXXXXXXX ooOOO   oOOOoo XXXXXXX",
"XXXXXXX.XX  oooooo OOO  XXXXXXXX",
"XXXXX.X.X.  oooooo OOO  XX.XXXXX",
"XXXXX.X.X.XXXXXXXXXXXXXX.X.X.XXX",
"XXXXXXXXXXXXXXXXXXXXXXXXXXXXXXXX",
"XXXXXXXXXXXXXXXXXXXXXXXXXXXXXXXX",
"XXXXXXXXXXXXXXXXXXXXXXXXXXXXXXXX",
"XXXXXXXXXXXXXXXXXXXXXXXXXXXXXXXX"
};
