/* XPM */
static char *tiles_45_041711992975[] = {
/* columns rows colors chars-per-pixel */
"45 45 12 1 ",
"  c #604B3D",
". c #353540",
"X c #374867",
"o c #735B42",
"O c #557D55",
"+ c #404867",
"@ c #444D66",
"# c #E56F4B",
"$ c #E39347",
"% c #BC87A5",
"& c #D9A6A6",
"* c #EDE4DA",
/* pixels */
"@@@@@@@@@@@@@@@@@@@@@@@@@@@@@@@@@@@@@@@@@@@@+",
"@@@@@@@@@@@@@@@@@@@@...............@@@@@@@@@+",
"@@@@@@@@@@@@@@@@@@@@...............@@@@@@@@@+",
"@@@@@@@@@@@@@@@@@@...&&&&&&&&&***...@@@@@@@@+",
"@@@@@@@@@@@@@@@@@@..&&&&&&&&&&&&***.@@@@@@@@+",
"@@@@@@@@@@@@@@@@@@..&&&&&&&&&&&&***.@@@@@@@@+",
"@@@@@@@@@@X@@@@@@@..&&&&&&&&&&&&&&&.XX@@@@@@+",
"@@@@@@@XX@X@@@@@@@..&&&&&&&&&&&&&&&.XX@XX@@@+",
"@@@@@@@XX@X@@X@@@@..&&&&&&&&&&&&&&&.XX@XX@@@+",
"@@@@@@@XX@X@@X@@@@..&&&&&&&&&&&&&&&......@@@+",
"@@@@@@@@@@@@@@......&&&&&&&&&&&&&&&&****...@+",
"@@@@@@@@@@@@@@......&&&&&&&&&&&&&&&&****...@+",
"@@@@@@@@@@@@...&&&**&&&&&&&&&&&&&&&&&&***..@+",
"@@@@@...........&&&&&&&&&&&&&&&&&&&&&&&&&..@+",
"@@@@..$$$$$$$**..&&&&&&&&&&&&&&&&&&&&&&&&..@+",
"@@@@.$$$$$$$$$**.&&&%&&&&&&&&&&&&%%&&&&&%..@+",
"@@@@.$$$$$$$$$**.&&&%%%%%%%%%%%%%%%%%%%%%..@+",
"@@@@.$$$$$$$$$$$.&&&%%%%%%%%%%%%%%%%%%%%%..@+",
"@@@@.$$$$$$$$$$$.%%%%%%%%%%%%%%%%%%%%%%%...@+",
"@@@@.$$$$$$$$$$$.%%%%%%%%%%%%%%%%%%     .@@@+",
"@@@@.$$$$$$$$$$$.%%%%%%%%%%%%%%%%%%     .@@@+",
"@@@@.$$$$$$$$$$$.   %%%%%%%%%%%%%%%ooo...@@@+",
"@@@@.$$$$$$$$$$$.ooo%%%%%%%%%%%%%%%.....@@@@+",
"@@@@.#$$$$$$$$$#.ooo%%%%%%%%%%%%%%%.....@@@@+",
"@@@@.###########....%%%%%%%%%%%%%%%.@@@@@@@@+",
"@@@@.###########.@..%%%%%%%%%%%%%%%.@@@@@@@@+",
"@@@@.###########.@..%%%%%%%%%%%%%%%.@@@@@@@@+",
"@@@@.###########.@...%%%%%%%%%%%%...@@@@@@@@+",
"@@@@.###########.@...%%%%%%%%%%%%...@@@@@@@@+",
"@@@@.###########.@OO....      .....O@@@@@@@@+",
"@@@@.###########.@OOO...oooooo...OOO@@@@@@@@+",
"@@@@.###########.@OOO...oooooo...OOO@@@@@@@@+",
"@@@@..#########..@OOO..ooooooooo.OOO@@@@@@@@+",
"@@@@O...     ...O@OOO..ooooooooo.OOO@@@@@@@@+",
"@@@@O...     ...O@OOO..ooooooooo.OOO@@@@@@@@+",
"@@@@OO..ooooo..OO@OOO...oooooo...OOO@@@@@@@@+",
"@@@@OO.ooooooo.OO@OOOOO.........OOOOXX@@@@@@+",
"@@@@OO.ooooooo.OO@OOOOO.........OOOOXX@XX@@@+",
"@@@@OO..ooooo..OO@OOOOOOOOOOOOOOOOOOXX@XX@@@+",
"@@@@OOO.......OOO@@@OOOOOOOOOOOOOOO@@@@@@@@@+",
"@@@@OOOOOOOOOOOOO@@@OOOOOOOOOOOOOOO@@@@@@@@@+",
"@@@@@OOOOOOOOOOO@@@@@@@@@@@@@@@@@@@@@@@@@@@@+",
"@@@@@@@@@@@@@@@@@@@@@@@@@@@@@@@@@@@@@@@@@@@@+",
"@@@@@@@@@@@@@@@@@@@@@@@@@@@@@@@@@@@@@@@@@@@@+",
"@@@@@@@@@@@@@@@@@@@@@@@@@@@@@@@@@@@@@@@@@@@@+"
};
