/* XPM */
static char *c46b13c8347142e6d7e60661ad4c1290g7QSdMgcm7aLTBXR[] = {
/* columns rows colors chars-per-pixel */
"32 32 21 1 ",
"  c #4F443F",
". c #604B3D",
"X c #69533F",
"o c #353540",
"O c #374867",
"+ c #544841",
"@ c #45594A",
"# c #735B42",
"$ c #4D6B4F",
"% c #557D55",
"& c #444D66",
"* c #67676F",
"= c #E56F4B",
"- c #E48149",
"; c #E39347",
": c #6F7382",
"> c #BC87A5",
", c #BAA0A3",
"< c #E8BB90",
"1 c #D9A6A6",
"2 c #EDE4DA",
/* pixels */
"&&&&&&&&&&&&&&&&&&&&&&&&&&&&&&&&",
"&&&&&&&&&&&&&&ooooooooooo&&&&&&&",
"&&&&&&&&&&&&&ooo11111122oo&&&&&&",
"&&&&&&&O&&&&&o11111111122oO&&&&&",
"&&&&&O&O&&&&&o11111111111oO&O&&&",
"&&&&&O&O&O&&&o11111111111oO&O&&&",
"&&&&&&&&&&&&&o11111111111oooo&&&",
"&&&&&&&&&&&&&o11111111111oooo&&&",
"&&&&&&&&&&oooo11111111111122ooo&",
"&&&&:::::**,12111111111111122oo&",
"&&&oo;;;;;2oo1111111111111111oo&",
"&&&o;;;;;;<2o1>>11111111>111>oo&",
"&&&o;;;;;;;;o1>>>>>>>>>>>>>>>oo&",
"&&&o;;;;;;;;o>>>>>>>>>>>>>>>ooo&",
"&&&o;;;;;;;;o>>>>>>>>>>>>...o&&&",
"&&&o;;;;;;;;o.>>>>>>>>>>>##oo&&&",
"&&&o-;;;;;;-o#>>>>>>>>>>>ooo&&&&",
"&&&o========oo>>>>>>>>>>>o&&&&&&",
"&&&o========oo>>>>>>>>>>>o&&&&&&",
"&&&o========oooo>>>>>>>>oo&&&&&&",
"&&&o========o%oooo....ooo%&&&&&&",
"&&&o========o%%%oo####oo%%&&&&&&",
"&&&o========o%%%oo####oo%%&&&&&&",
"&&&oo======oo%%%o######o%%&&&&&&",
"&&&%@o XXXo@%%%%o######o%%&&&&&&",
"&&&%%o####+%%%%%oo####oo%%O&&&&&",
"&&&%%o####+%%%%%%oooooo%%%O&O&&&",
"&&&%%o+###o%%%%%%%%%%%%%%%&&&&&&",
"&&&%%%@@@@$%%&%%%%%%%%%%%&&&&&&&",
"&&&&%%%%%%%%&&&&&&&&&&&&&&&&&&&&",
"&&&&&&&&&&&&&&&&&&&&&&&&&&&&&&&&",
"&&&&&&&&&&&&&&&&&&&&&&&&&&&&&&&&"
};
